<svg width="128" height="128" viewBox="0 0 128 128" fill="none" xmlns="http://www.w3.org/2000/svg">
<path d="M0 10C0 4.47715 4.47715 0 10 0H118C123.523 0 128 4.47715 128 10V118C128 123.523 123.523 128 118 128H10C4.47715 128 0 123.523 0 118V10Z" fill="#1B453F"/>
<path d="M118 126V128H10V126H118ZM126 118V10C126 5.58172 122.418 2 118 2H10C5.58172 2 2 5.58172 2 10V118C2 122.418 5.58172 126 10 126V128C4.64975 128 0.280543 123.798 0.0126953 118.515L0 118V10C0 4.47715 4.47715 0 10 0H118C123.523 0 128 4.47715 128 10V118C128 123.35 123.798 127.719 118.515 127.987L118 128V126C122.418 126 126 122.418 126 118Z" fill="#31D17B"/>
<path d="M99.1818 34.8595C99.1818 33.811 98.7697 32.8058 98.0366 32.0645C97.3035 31.3231 96.3095 30.9063 95.2727 30.9063H32.7273C31.6905 30.9063 30.6965 31.3231 29.9634 32.0645C29.2303 32.8058 28.8182 33.811 28.8182 34.8595V96.4731L35.4911 89.725L36.3501 88.9374C38.4364 87.2081 41.0614 86.2511 43.7827 86.2505H95.2727C96.3095 86.2505 97.3035 85.8337 98.0366 85.0924C98.7697 84.351 99.1818 83.3458 99.1818 82.2974V34.8595ZM107 82.2974C107 85.4427 105.764 88.4583 103.564 90.6824C101.365 92.9065 98.383 94.1568 95.2727 94.1568H43.7827C42.7461 94.1571 41.7517 94.5736 41.0188 95.315L32.4104 104.02C31.476 104.965 30.2859 105.609 28.99 105.87C27.6936 106.13 26.3478 105.999 25.1267 105.487C23.9055 104.976 22.8607 104.109 22.1262 102.997C21.3916 101.886 21.0002 100.578 21 99.2411V34.8595C21 31.7141 22.2364 28.6985 24.4357 26.4745C26.635 24.2504 29.617 23 32.7273 23H95.2727C98.383 23 101.365 24.2504 103.564 26.4745C105.764 28.6985 107 31.7141 107 34.8595V82.2974Z" fill="#31D17B"/>
<path d="M53.4177 43.9241C54.9443 42.3803 57.4188 42.3803 58.9454 43.9241C60.472 45.4679 60.472 47.9703 58.9454 49.5141L49.9819 58.5786L58.9454 67.6431C60.472 69.1869 60.472 71.6893 58.9454 73.2331C57.4188 74.7769 54.9443 74.7769 53.4177 73.2331L41.6904 61.3736C40.1638 59.8298 40.1638 57.3274 41.6904 55.7836L53.4177 43.9241Z" fill="#31D17B"/>
<path d="M69.054 43.9241C70.5806 42.3803 73.0551 42.3803 74.5817 43.9241L86.309 55.7836C87.8356 57.3274 87.8356 59.8298 86.309 61.3736L74.5817 73.2331C73.0551 74.7769 70.5806 74.7769 69.054 73.2331C67.5274 71.6893 67.5274 69.1869 69.054 67.6431L78.0175 58.5786L69.054 49.5141C67.5274 47.9703 67.5274 45.4679 69.054 43.9241Z" fill="#31D17B"/>
</svg>
